{
	"asset":{
		"generator":"Khronos glTF Blender I/O v4.2.70",
		"version":"2.0"
	},
	"scene":0,
	"scenes":[
		{
			"name":"Scene",
			"nodes":[
				0
			]
		}
	],
	"nodes":[
		{
			"mesh":0,
			"name":"Apple"
		}
	],
	"materials":[
		{
			"doubleSided":true,
			"name":"Material.001",
			"pbrMetallicRoughness":{
				"baseColorFactor":[
					0.19687940180301666,
					0.05937465280294418,
					0.008373873308300972,
					1
				],
				"metallicFactor":0
			}
		},
		{
			"doubleSided":true,
			"name":"Material.002",
			"pbrMetallicRoughness":{
				"baseColorFactor":[
					0.8000626564025879,
					0.0215948186814785,
					0.03738466277718544,
					1
				],
				"metallicFactor":0,
				"roughnessFactor":0.27165353298187256
			}
		}
	],
	"meshes":[
		{
			"name":"Cube.002",
			"primitives":[
				{
					"attributes":{
						"POSITION":0,
						"NORMAL":1,
						"TEXCOORD_0":2,
						"TANGENT":3
					},
					"indices":4,
					"material":0
				},
				{
					"attributes":{
						"POSITION":5,
						"NORMAL":6,
						"TEXCOORD_0":7,
						"TANGENT":8
					},
					"indices":9,
					"material":1
				}
			]
		}
	],
	"accessors":[
		{
			"bufferView":0,
			"componentType":5126,
			"count":88,
			"max":[
				0.0043910495005548,
				0.11790697276592255,
				0.004928530193865299
			],
			"min":[
				-0.0043910495005548,
				0.061627816408872604,
				-0.004736787173897028
			],
			"type":"VEC3"
		},
		{
			"bufferView":1,
			"componentType":5126,
			"count":88,
			"type":"VEC3"
		},
		{
			"bufferView":2,
			"componentType":5126,
			"count":88,
			"type":"VEC2"
		},
		{
			"bufferView":3,
			"componentType":5126,
			"count":88,
			"type":"VEC4"
		},
		{
			"bufferView":4,
			"componentType":5123,
			"count":132,
			"type":"SCALAR"
		},
		{
			"bufferView":5,
			"componentType":5126,
			"count":441,
			"max":[
				0.14985980093479156,
				0.10667861253023148,
				0.1499556601047516
			],
			"min":[
				-0.14985980093479156,
				-0.13352306187152863,
				-0.14976389706134796
			],
			"type":"VEC3"
		},
		{
			"bufferView":6,
			"componentType":5126,
			"count":441,
			"type":"VEC3"
		},
		{
			"bufferView":7,
			"componentType":5126,
			"count":441,
			"type":"VEC2"
		},
		{
			"bufferView":8,
			"componentType":5126,
			"count":441,
			"type":"VEC4"
		},
		{
			"bufferView":9,
			"componentType":5123,
			"count":2304,
			"type":"SCALAR"
		}
	],
	"bufferViews":[
		{
			"buffer":0,
			"byteLength":1056,
			"byteOffset":0,
			"target":34962
		},
		{
			"buffer":0,
			"byteLength":1056,
			"byteOffset":1056,
			"target":34962
		},
		{
			"buffer":0,
			"byteLength":704,
			"byteOffset":2112,
			"target":34962
		},
		{
			"buffer":0,
			"byteLength":1408,
			"byteOffset":2816,
			"target":34962
		},
		{
			"buffer":0,
			"byteLength":264,
			"byteOffset":4224,
			"target":34963
		},
		{
			"buffer":0,
			"byteLength":5292,
			"byteOffset":4488,
			"target":34962
		},
		{
			"buffer":0,
			"byteLength":5292,
			"byteOffset":9780,
			"target":34962
		},
		{
			"buffer":0,
			"byteLength":3528,
			"byteOffset":15072,
			"target":34962
		},
		{
			"buffer":0,
			"byteLength":7056,
			"byteOffset":18600,
			"target":34962
		},
		{
			"buffer":0,
			"byteLength":4608,
			"byteOffset":25656,
			"target":34963
		}
	],
	"buffers":[
		{
			"byteLength":30264,
			"uri":"Apple-0cb5d8ca0428bb32c524bfe2c579639a.bin"
		}
	]
}
