{
	"asset":{
		"generator":"Khronos glTF Blender I/O v4.2.70",
		"version":"2.0"
	},
	"scene":0,
	"scenes":[
		{
			"name":"Scene",
			"nodes":[
				9
			]
		}
	],
	"nodes":[
		{
			"name":"Bone.007",
			"rotation":[
				1.2434497875801753e-14,
				0,
				-7.734979842422392e-22,
				1
			],
			"translation":[
				4.235164736271502e-22,
				0.29999983310699463,
				-1.7205356741102976e-22
			]
		},
		{
			"children":[
				0
			],
			"name":"Bone.006",
			"rotation":[
				-7.105427357601002e-15,
				0,
				4.176246040546865e-22,
				1
			],
			"translation":[
				6.352747104407253e-22,
				0.30000007152557373,
				-1.7205356741102976e-22
			]
		},
		{
			"children":[
				1
			],
			"name":"Bone.005",
			"rotation":[
				3.552713678800501e-15,
				0,
				-1.5881862712308338e-22,
				1
			],
			"translation":[
				-2.117582368135751e-22,
				0.2999999523162842,
				-1.7205356741102976e-22
			]
		},
		{
			"children":[
				2
			],
			"name":"Bone.004",
			"rotation":[
				3.552713678800501e-15,
				0,
				-4.1175595854727256e-22,
				1
			],
			"translation":[
				0,
				0.29999983310699463,
				-1.7205356741102976e-22
			]
		},
		{
			"children":[
				3
			],
			"name":"Bone.003",
			"rotation":[
				-7.105427357601002e-15,
				0,
				4.823305095977693e-22,
				1
			],
			"translation":[
				0,
				0.2999999523162842,
				-1.7763570511584873e-15
			]
		},
		{
			"children":[
				4
			],
			"name":"Bone.002",
			"rotation":[
				1.7763568394002505e-15,
				0,
				6.470410820239632e-22,
				1
			],
			"translation":[
				-2.117582368135751e-22,
				0.30000004172325134,
				-8.88178631458362e-16
			]
		},
		{
			"children":[
				5
			],
			"name":"Bone.001",
			"rotation":[
				-2.1855692367012125e-08,
				-1.1920928955078125e-07,
				2.6054011361954744e-15,
				1
			],
			"translation":[
				0,
				0.29999998211860657,
				2.9778502051908996e-22
			]
		},
		{
			"children":[
				6
			],
			"name":"Bone",
			"rotation":[
				0.7071067690849304,
				5.338507591545749e-08,
				5.338507591545749e-08,
				0.7071067690849304
			]
		},
		{
			"mesh":0,
			"name":"Worm.001",
			"skin":0
		},
		{
			"children":[
				8,
				7
			],
			"name":"Armature"
		}
	],
	"materials":[
		{
			"doubleSided":true,
			"name":"WormSkin",
			"normalTexture":{
				"index":0
			},
			"pbrMetallicRoughness":{
				"baseColorTexture":{
					"index":1
				},
				"metallicFactor":0,
				"metallicRoughnessTexture":{
					"index":2
				}
			}
		}
	],
	"meshes":[
		{
			"name":"Cylinder.001",
			"primitives":[
				{
					"attributes":{
						"POSITION":0,
						"NORMAL":1,
						"TEXCOORD_0":2,
						"TANGENT":3,
						"JOINTS_0":4,
						"WEIGHTS_0":5
					},
					"indices":6,
					"material":0
				}
			]
		}
	],
	"textures":[
		{
			"sampler":0,
			"source":0
		},
		{
			"sampler":0,
			"source":1
		},
		{
			"sampler":0,
			"source":2
		}
	],
	"images":[
		{
			"mimeType":"image/png",
			"name":"WormSkin Base ColorNormals.png",
			"uri":"../../BlenderFiles/textures/WormSkin%20Base%20ColorNormals.png"
		},
		{
			"mimeType":"image/png",
			"name":"WormSkin Base Color",
			"uri":"../../BlenderFiles/textures/WormSkin%20Base%20Color.png"
		},
		{
			"mimeType":"image/png",
			"name":"WormSkin Base ColorRough.png",
			"uri":"../../BlenderFiles/textures/WormSkin%20Base%20ColorRough.png"
		}
	],
	"skins":[
		{
			"inverseBindMatrices":7,
			"joints":[
				7,
				6,
				5,
				4,
				3,
				2,
				1,
				0
			],
			"name":"Armature"
		}
	],
	"accessors":[
		{
			"bufferView":0,
			"componentType":5126,
			"count":1520,
			"max":[
				0.08265574276447296,
				0.0855199545621872,
				2.3415253162384033
			],
			"min":[
				-0.08265575766563416,
				-0.0828121155500412,
				-0.053131792694330215
			],
			"type":"VEC3"
		},
		{
			"bufferView":1,
			"componentType":5126,
			"count":1520,
			"type":"VEC3"
		},
		{
			"bufferView":2,
			"componentType":5126,
			"count":1520,
			"type":"VEC2"
		},
		{
			"bufferView":3,
			"componentType":5126,
			"count":1520,
			"type":"VEC4"
		},
		{
			"bufferView":4,
			"componentType":5121,
			"count":1520,
			"type":"VEC4"
		},
		{
			"bufferView":5,
			"componentType":5126,
			"count":1520,
			"type":"VEC4"
		},
		{
			"bufferView":6,
			"componentType":5123,
			"count":8832,
			"type":"SCALAR"
		},
		{
			"bufferView":7,
			"componentType":5126,
			"count":8,
			"type":"MAT4"
		}
	],
	"bufferViews":[
		{
			"buffer":0,
			"byteLength":18240,
			"byteOffset":0,
			"target":34962
		},
		{
			"buffer":0,
			"byteLength":18240,
			"byteOffset":18240,
			"target":34962
		},
		{
			"buffer":0,
			"byteLength":12160,
			"byteOffset":36480,
			"target":34962
		},
		{
			"buffer":0,
			"byteLength":24320,
			"byteOffset":48640,
			"target":34962
		},
		{
			"buffer":0,
			"byteLength":6080,
			"byteOffset":72960,
			"target":34962
		},
		{
			"buffer":0,
			"byteLength":24320,
			"byteOffset":79040,
			"target":34962
		},
		{
			"buffer":0,
			"byteLength":17664,
			"byteOffset":103360,
			"target":34963
		},
		{
			"buffer":0,
			"byteLength":512,
			"byteOffset":121024
		}
	],
	"samplers":[
		{
			"magFilter":9729,
			"minFilter":9987
		}
	],
	"buffers":[
		{
			"byteLength":121536,
			"uri":"Worm-942afdb7b0f63cb4c269f182f7eba37b.bin"
		}
	]
}
